<svg width="232" height="87" viewBox="0 0 232 87" fill="none" xmlns="http://www.w3.org/2000/svg">
<path d="M30.717 67.2069C43.3933 58.3219 42.8304 37.7848 31.9785 22.382C27.4004 16.4338 23.5005 9.32582 23.5005 0C20.4891 8.26098 14.4528 27.2924 27.8345 41.6237C38.822 53.3979 34.2913 66.5761 24.8028 70.1166C24.9994 70.0555 25.2029 70.0013 25.3928 69.9334C27.3869 69.2688 29.1435 68.2989 30.717 67.2001V67.2069Z" fill="#004077"/>
<path d="M46.3855 46.4392C46.2566 44.3841 45.8971 42.3222 45.2799 40.3214C44.5678 38.0086 43.5368 35.7772 42.1329 33.7425C39.542 29.9715 35.615 26.8583 31.9728 22.3752C31.9728 22.3752 31.9728 22.3752 31.9728 22.382C42.8179 37.7848 43.3876 58.322 30.7113 67.2069C29.1446 68.3057 27.3879 69.2688 25.3871 69.9402C25.1972 70.0013 24.9937 70.0623 24.797 70.1233C21.8331 70.9915 18.1571 71.1882 14.9625 70.3472C14.5692 70.2454 14.1894 70.1234 13.8163 69.9877C13.389 69.8317 12.9685 69.6621 12.5684 69.4655C25.6855 75.9833 38.5789 69.418 43.7607 59.597C45.5919 56.1245 46.5143 51.8515 46.399 47.4769C46.399 47.131 46.3855 46.7851 46.3651 46.4392H46.3855Z" fill="#0069B4"/>
<path d="M12.8197 38.4495C20.9382 26.153 18.8357 18.6584 17.5199 14.7585C16.3194 17.3562 14.5424 19.8725 12.5755 22.4362C5.84735 32.23 3.81941 41.3727 3.7448 47.9652C3.69733 51.9736 4.02288 55.202 4.57904 57.82C4.52478 57.23 4.49087 56.6263 4.49087 56.0024C4.49087 48.596 9.03508 44.1671 12.8061 38.4495H12.8197Z" fill="#95C11F"/>
<path d="M4.58491 57.8133C4.02875 55.1953 3.70998 51.9736 3.75067 47.9584C3.82528 41.3659 5.85322 32.2232 12.5814 22.4362C11.937 23.2637 11.2791 24.1047 10.6077 24.9525C5.56158 31.3754 0.244167 38.1782 0 47.4701C0 52.3806 1.18692 56.9519 3.34373 60.7433C4.76125 63.0764 6.58572 65.1315 8.75609 66.9017C9.33938 67.3765 9.9498 67.8173 10.5738 68.2514C8.47123 66.7254 5.88713 63.9717 4.58491 57.8133Z" fill="#52AE32"/>
<path d="M81.6595 70.9915C77.9359 70.9915 74.4159 69.6418 71.6419 67.1255C68.7119 64.4668 66.9823 60.8586 66.7585 56.9316H66.7382L66.7246 56.4704V25.4273H67.1858C70.6788 25.4273 73.507 28.2555 73.507 31.7485V56.0498C73.507 56.1855 73.507 56.3144 73.5138 56.4432C73.7444 61.2384 78.0648 64.8873 83.016 64.0938C84.5217 63.8496 85.9392 63.1714 87.0786 62.1472C89.0794 60.3499 90.0425 57.8336 89.778 55.1953C89.3575 51.0241 85.8103 47.8838 81.5238 47.8838C78.3293 47.8838 75.7452 45.2997 75.7452 42.1052V41.1014H81.3543C85.4373 41.1014 89.4253 42.6342 92.2943 45.5439C95.3193 48.6163 96.8453 52.6993 96.574 56.9994C96.1128 64.4329 90.1578 70.4286 82.7311 70.944C82.3716 70.9711 82.0122 70.9847 81.6595 70.9847V70.9915Z" fill="#004077"/>
<path d="M117.085 41.0065C124.511 41.5219 130.46 47.5176 130.928 54.9511C131.199 59.2511 129.673 63.3409 126.648 66.4066C123.779 69.3162 119.791 70.8491 115.708 70.8491H110.099V69.8453C110.099 66.6508 112.683 64.0667 115.877 64.0667C120.164 64.0667 123.718 60.9196 124.132 56.7552C124.396 54.1169 123.433 51.6006 121.432 49.8032C120.299 48.7859 118.875 48.1009 117.369 47.8567C112.418 47.0631 108.098 50.7121 107.867 55.5072C107.867 55.6361 107.861 55.7718 107.861 55.9006V80.202C107.861 83.695 105.032 86.5232 101.539 86.5232H101.078V55.4801L101.092 55.0189H101.112C101.336 51.0919 103.059 47.4837 105.995 44.825C108.769 42.3087 112.289 40.959 116.013 40.959C116.372 40.959 116.725 40.9725 117.085 40.9997V41.0065Z" fill="#004077"/>
<path d="M56.0022 70.9915H55.541V41.0946H62.2556V64.6703C62.2556 68.1564 59.4477 70.9915 56.0022 70.9915Z" fill="#004077"/>
<path d="M62.2556 38.8564H55.541V35.4991C55.541 33.6475 57.0467 32.1418 58.8983 32.1418C60.7499 32.1418 62.2556 33.6475 62.2556 35.4991V38.8564Z" fill="#004077"/>
<path d="M141.292 48.1755H140.125V41.8339H141.292V48.1755Z" fill="#004077"/>
<path d="M143.87 43.8076H143.775V48.1687H142.629V41.8271H143.87L146.061 46.1882H146.156V41.8271H147.322V48.1687H146.081L143.87 43.8076Z" fill="#004077"/>
<path d="M151.507 46.4256V46.4053C151.507 45.7406 151.243 45.5575 150.137 45.3608C148.923 45.1437 148.354 44.7164 148.354 43.4956V43.4753C148.354 42.2476 148.944 41.705 150.463 41.705C151.284 41.705 152.009 41.8746 152.396 42.0103L152.267 42.8513C151.901 42.736 151.229 42.6342 150.673 42.6342C149.825 42.6342 149.527 42.8581 149.527 43.4549V43.4753C149.527 44.1128 149.785 44.2688 150.863 44.4723C152.301 44.7503 152.694 45.1912 152.694 46.3849V46.4053C152.694 47.7075 151.921 48.2908 150.3 48.2908C149.595 48.2908 148.788 48.1348 148.408 47.9923L148.53 47.1513C148.896 47.2666 149.649 47.3548 150.131 47.3548C151.107 47.3548 151.521 47.1378 151.521 46.4256H151.507Z" fill="#004077"/>
<path d="M157.713 41.8339V42.7835H156.024V48.1755H154.858V42.7835H153.162V41.8339H157.713Z" fill="#004077"/>
<path d="M159.774 48.1755H158.607V41.8339H159.774V48.1755Z" fill="#004077"/>
<path d="M165.221 41.8339V42.7835H163.532V48.1755H162.366V42.7835H160.67V41.8339H165.221Z" fill="#004077"/>
<path d="M166.041 46.0865V41.8339H167.208V46.0865C167.208 46.9818 167.533 47.348 168.327 47.348C169.12 47.348 169.439 46.9818 169.439 46.0865V41.8339H170.612V46.0865C170.612 47.5786 169.907 48.2975 168.327 48.2975C166.746 48.2975 166.041 47.5786 166.041 46.0865Z" fill="#004077"/>
<path d="M175.971 41.8339V42.7835H174.282V48.1755H173.116V42.7835H171.42V41.8339H175.971Z" fill="#004077"/>
<path d="M181.423 44.9945V45.0149C181.423 47.2259 180.941 48.2975 178.94 48.2975C176.939 48.2975 176.451 47.2259 176.451 45.0149V44.9945C176.451 42.7834 176.946 41.7118 178.94 41.7118C180.934 41.7118 181.423 42.7834 181.423 44.9945ZM180.243 45.0149V44.9945C180.243 43.3939 180.059 42.6478 178.947 42.6478C177.835 42.6478 177.652 43.3939 177.652 44.9945V45.0149C177.652 46.6155 177.835 47.3616 178.947 47.3616C180.059 47.3616 180.243 46.6155 180.243 45.0149Z" fill="#004077"/>
<path d="M184.923 41.8339H187.141C188.626 41.8339 189.23 42.3087 189.23 43.4753V43.4956C189.23 44.3502 188.823 44.791 188.314 44.8657V44.8928C188.985 45.0352 189.44 45.4828 189.44 46.3849V46.4053C189.44 47.6668 188.775 48.1755 187.175 48.1755H184.916V41.8339H184.923ZM186.069 44.4723H187.208C187.846 44.4723 188.083 44.1671 188.083 43.5973V43.577C188.083 43.0005 187.853 42.7224 187.141 42.7224H186.069V44.4723ZM186.069 45.3065V47.2802H187.181C187.982 47.2802 188.294 46.975 188.294 46.29V46.2696C188.294 45.6524 187.988 45.2997 187.175 45.2997H186.076L186.069 45.3065Z" fill="#004077"/>
<path d="M191.652 48.1755H190.506V41.8339H192.669C194.284 41.8339 194.901 42.3901 194.901 43.9432V43.9636C194.901 45.1234 194.494 45.7067 193.565 45.883L195.077 48.1755H193.843L192.466 46.0119H191.652V48.1755ZM192.683 45.1505C193.429 45.1505 193.755 44.8046 193.755 43.9568V43.9365C193.755 43.0887 193.429 42.7428 192.683 42.7428H191.659V45.1505H192.683Z" fill="#004077"/>
<path d="M199.051 46.7376H197.003L196.63 48.1755H195.43L197.166 41.8339H198.902L200.645 48.1755H199.445L199.065 46.7376H199.051ZM197.173 45.8152H198.882L198.082 42.7292H197.966L197.173 45.8152Z" fill="#004077"/>
<path d="M204.423 46.4256V46.4053C204.423 45.7406 204.166 45.5575 203.053 45.3608C201.839 45.1437 201.27 44.7164 201.27 43.4956V43.4753C201.27 42.2476 201.86 41.705 203.379 41.705C204.2 41.705 204.925 41.8746 205.312 42.0103L205.183 42.8513C204.817 42.736 204.145 42.6342 203.589 42.6342C202.741 42.6342 202.443 42.8581 202.443 43.4549V43.4753C202.443 44.1128 202.701 44.2688 203.779 44.4723C205.217 44.7503 205.61 45.1912 205.61 46.3849V46.4053C205.61 47.7075 204.837 48.2908 203.216 48.2908C202.511 48.2908 201.704 48.1348 201.324 47.9923L201.446 47.1513C201.812 47.2666 202.565 47.3548 203.047 47.3548C204.023 47.3548 204.437 47.1378 204.437 46.4256H204.423Z" fill="#004077"/>
<path d="M207.788 48.1755H206.621V41.8339H207.788V48.1755Z" fill="#004077"/>
<path d="M210.282 47.2191H212.622V48.1687H209.115V41.8271H210.282V47.2191Z" fill="#004077"/>
<path d="M217.127 45.3947H214.719V47.2191H217.378V48.1687H213.553V41.8271H217.31V42.7767H214.719V44.4723H217.127V45.3879V45.3947Z" fill="#004077"/>
<path d="M219.629 48.1755H218.463V41.8339H219.629V48.1755Z" fill="#004077"/>
<path d="M222.105 48.1755H220.959V41.8339H223.123C224.737 41.8339 225.354 42.3901 225.354 43.9432V43.9636C225.354 45.1234 224.947 45.7067 224.018 45.883L225.53 48.1755H224.296L222.919 46.0119H222.105V48.1755ZM223.136 45.1505C223.882 45.1505 224.208 44.8046 224.208 43.9568V43.9365C224.208 43.0887 223.882 42.7428 223.136 42.7428H222.112V45.1505H223.136Z" fill="#004077"/>
<path d="M231.186 44.9945V45.0149C231.186 47.2259 230.705 48.2975 228.704 48.2975C226.703 48.2975 226.215 47.2259 226.215 45.0149V44.9945C226.215 42.7834 226.71 41.7118 228.704 41.7118C230.698 41.7118 231.186 42.7834 231.186 44.9945ZM230.006 45.0149V44.9945C230.006 43.3939 229.823 42.6478 228.711 42.6478C227.598 42.6478 227.415 43.3939 227.415 44.9945V45.0149C227.415 46.6155 227.598 47.3616 228.711 47.3616C229.823 47.3616 230.006 46.6155 230.006 45.0149Z" fill="#004077"/>
<path d="M140.07 59.3597V53.0181H142.078C144.085 53.0181 144.696 53.9337 144.696 56.1787V56.1991C144.696 58.444 144.079 59.3597 142.078 59.3597H140.07ZM142.078 58.4101C143.197 58.4101 143.516 57.8336 143.516 56.1991V56.1787C143.516 54.5441 143.197 53.9676 142.078 53.9676H141.237V58.4033H142.078V58.4101Z" fill="#004077"/>
<path d="M149.342 56.5857H146.934V58.4101H149.593V59.3597H145.768V53.0181H149.525V53.9676H146.934V55.6632H149.342V56.5789V56.5857Z" fill="#004077"/>
<path d="M154.266 59.3597H153.1V53.0181H155.195C156.796 53.0181 157.406 53.5675 157.406 55.1139V55.1342C157.406 56.6806 156.803 57.23 155.195 57.23H154.259V59.3529L154.266 59.3597ZM154.266 56.294H155.209C155.948 56.294 156.247 55.9956 156.247 55.1342V55.1139C156.247 54.2593 155.948 53.9609 155.209 53.9609H154.266V56.294Z" fill="#004077"/>
<path d="M162.061 56.5857H159.653V58.4101H162.312V59.3597H158.486V53.0181H162.244V53.9676H159.653V55.6632H162.061V56.5789V56.5857Z" fill="#004077"/>
<path d="M167.487 53.0181V53.9676H165.798V59.3597H164.631V53.9676H162.936V53.0181H167.487Z" fill="#004077"/>
<path d="M169.508 59.3597H168.361V53.0181H170.525C172.139 53.0181 172.756 53.5743 172.756 55.1274V55.1478C172.756 56.3076 172.349 56.8909 171.42 57.0672L172.933 59.3597H171.698L170.321 57.1961H169.508V59.3597ZM170.538 56.3415C171.285 56.3415 171.61 55.9956 171.61 55.1478V55.1274C171.61 54.2796 171.285 53.9337 170.538 53.9337H169.514V56.3415H170.538Z" fill="#004077"/>
<path d="M178.589 56.1855V56.2058C178.589 58.4169 178.107 59.4885 176.106 59.4885C174.106 59.4885 173.617 58.4169 173.617 56.2058V56.1855C173.617 53.9744 174.112 52.9028 176.106 52.9028C178.1 52.9028 178.589 53.9744 178.589 56.1855ZM177.409 56.1991V56.1787C177.409 54.5781 177.225 53.832 176.113 53.832C175.001 53.832 174.818 54.5781 174.818 56.1787V56.1991C174.818 57.7997 175.001 58.5458 176.113 58.5458C177.225 58.5458 177.409 57.7997 177.409 56.1991ZM175.32 52.5366L175.177 52.1974L176.764 51.3971L177.036 51.994L175.32 52.5366Z" fill="#004077"/>
<path d="M180.846 58.4101H183.186V59.3597H179.68V53.0181H180.846V58.4101Z" fill="#004077"/>
<path d="M187.692 56.5857H185.284V58.4101H187.942V59.3597H184.117V53.0181H187.875V53.9676H185.284V55.6632H187.692V56.5789V56.5857Z" fill="#004077"/>
<path d="M193.686 56.1855V56.2058C193.686 58.4169 193.205 59.4885 191.204 59.4885C189.203 59.4885 188.715 58.4169 188.715 56.2058V56.1855C188.715 53.9744 189.21 52.9028 191.204 52.9028C193.198 52.9028 193.686 53.9744 193.686 56.1855ZM192.499 56.1991V56.1787C192.499 54.5781 192.316 53.832 191.204 53.832C190.092 53.832 189.909 54.5781 189.909 56.1787V56.1991C189.909 57.7997 190.092 58.5458 191.204 58.5458C192.316 58.5458 192.499 57.7997 192.499 56.1991Z" fill="#004077"/>
<path d="M194.574 58.1185H195.734L195.293 60.4584H194.473L194.574 58.1185Z" fill="#004077"/>
<path d="M200.245 56.1855V56.2058C200.245 57.7454 200.496 58.5526 201.697 58.5526C202.07 58.5526 202.368 58.4847 202.572 58.3966V56.5314H201.548V55.7379H203.671V59.0002C203.142 59.2918 202.497 59.4817 201.656 59.4817C199.594 59.4817 199.045 58.4101 199.045 56.1991V56.1787C199.045 53.9473 199.567 52.896 201.812 52.896C202.558 52.896 203.175 53.052 203.548 53.1944L203.426 54.049C203.06 53.9337 202.612 53.8456 202.083 53.8456C200.449 53.8456 200.239 54.5374 200.239 56.1787L200.245 56.1855Z" fill="#004077"/>
<path d="M208.065 57.9286H206.017L205.644 59.3664H204.443L206.18 53.0249H207.916L209.659 59.3664H208.459L208.079 57.9286H208.065ZM206.254 52.5366L206.112 52.1974L207.699 51.3971L207.97 51.994L206.254 52.5366ZM206.193 56.9994H207.902L207.102 53.9134H206.987L206.193 56.9994Z" fill="#004077"/>
<path d="M213.437 57.6166V57.5962C213.437 56.9316 213.173 56.7484 212.067 56.5517C210.853 56.3347 210.283 55.9074 210.283 54.6866V54.6662C210.283 53.4386 210.873 52.896 212.393 52.896C213.213 52.896 213.939 53.0656 214.326 53.2012L214.197 54.0422C213.83 53.9269 213.159 53.8252 212.603 53.8252C211.755 53.8252 211.457 54.049 211.457 54.6459V54.6662C211.457 55.3038 211.714 55.4598 212.793 55.6632C214.231 55.9413 214.624 56.3822 214.624 57.5759V57.5962C214.624 58.8985 213.851 59.4817 212.23 59.4817C211.524 59.4817 210.717 59.3257 210.337 59.1833L210.46 58.3423C210.826 58.4576 211.579 58.5458 212.06 58.5458C213.037 58.5458 213.451 58.3287 213.451 57.6166H213.437Z" fill="#004077"/>
<path d="M221.629 56.5857H219.221V58.4101H221.88V59.3597H218.055V53.0181H221.812V53.9676H219.221V55.6632H221.629V56.5789V56.5857Z" fill="#004077"/>
<path d="M140.071 64.2091H142.289C143.774 64.2091 144.378 64.6839 144.378 65.8504V65.8708C144.378 66.7254 143.971 67.1662 143.462 67.2408V67.268C144.134 67.4104 144.588 67.858 144.588 68.7601V68.7804C144.588 70.042 143.924 70.5506 142.323 70.5506H140.064V64.2091H140.071ZM141.217 66.8474H142.357C142.994 66.8474 143.232 66.5422 143.232 65.9725V65.9522C143.232 65.3757 143.001 65.0976 142.289 65.0976H141.217V66.8474ZM141.217 67.6885V69.6621H142.33C143.13 69.6621 143.442 69.3569 143.442 68.6719V68.6516C143.442 68.0344 143.137 67.6817 142.323 67.6817H141.224L141.217 67.6885Z" fill="#004077"/>
<path d="M146.84 70.5506H145.674V64.2091H146.84V70.5506Z" fill="#004077"/>
<path d="M152.925 67.3697V67.39C152.925 69.6011 152.443 70.6727 150.442 70.6727C148.441 70.6727 147.953 69.6011 147.953 67.39V67.3697C147.953 65.1586 148.448 64.087 150.442 64.087C152.436 64.087 152.925 65.1586 152.925 67.3697ZM151.738 67.39V67.3697C151.738 65.769 151.555 65.023 150.442 65.023C149.33 65.023 149.147 65.769 149.147 67.3697V67.39C149.147 68.9907 149.33 69.7367 150.442 69.7367C151.555 69.7367 151.738 68.9907 151.738 67.39Z" fill="#004077"/>
<path d="M153.785 67.3697C153.785 65.1586 154.328 64.087 156.396 64.087C157.034 64.087 157.631 64.2159 157.983 64.3583L157.855 65.2197C157.509 65.1179 157.081 65.0433 156.654 65.0433C155.216 65.0433 154.986 65.7351 154.986 67.3765V67.3968C154.986 69.0382 155.23 69.73 156.681 69.73C157.122 69.73 157.57 69.6554 157.909 69.5536L158.038 70.415C157.671 70.5574 157.068 70.6863 156.424 70.6863C154.328 70.6863 153.785 69.6147 153.785 67.4036V67.3832V67.3697Z" fill="#004077"/>
<path d="M163.559 67.3697V67.39C163.559 69.6011 163.078 70.6727 161.077 70.6727C159.076 70.6727 158.588 69.6011 158.588 67.39V67.3697C158.588 65.1586 159.083 64.087 161.077 64.087C163.071 64.087 163.559 65.1586 163.559 67.3697ZM162.379 67.39V67.3697C162.379 65.769 162.196 65.023 161.084 65.023C159.971 65.023 159.788 65.769 159.788 67.3697V67.39C159.788 68.9907 159.971 69.7367 161.084 69.7367C162.196 69.7367 162.379 68.9907 162.379 67.39Z" fill="#004077"/>
<path d="M165.851 65.7962H165.776V70.5506H164.65V64.2091H166.244L167.614 68.9296H167.689L169.066 64.2091H170.66V70.5506H169.534V65.7962H169.452L168.089 70.2726H167.221L165.851 65.7962Z" fill="#004077"/>
<path d="M171.935 64.2091H174.152C175.638 64.2091 176.241 64.6839 176.241 65.8504V65.8708C176.241 66.7254 175.834 67.1662 175.326 67.2408V67.268C175.997 67.4104 176.452 67.858 176.452 68.7601V68.7804C176.452 70.042 175.787 70.5506 174.186 70.5506H171.928V64.2091H171.935ZM173.081 66.8474H174.22C174.858 66.8474 175.095 66.5422 175.095 65.9725V65.9522C175.095 65.3757 174.865 65.0976 174.152 65.0976H173.081V66.8474ZM173.081 67.6885V69.6621H174.193C174.993 69.6621 175.305 69.3569 175.305 68.6719V68.6516C175.305 68.0344 175 67.6817 174.186 67.6817H173.088L173.081 67.6885Z" fill="#004077"/>
<path d="M177.395 68.4617V64.2091H178.561V68.4617C178.561 69.3569 178.887 69.7232 179.68 69.7232C180.474 69.7232 180.793 69.3569 180.793 68.4617V64.2091H181.966V68.4617C181.966 69.9538 181.261 70.6727 179.68 70.6727C178.1 70.6727 177.395 69.9538 177.395 68.4617Z" fill="#004077"/>
<path d="M186.103 68.8076V68.7872C186.103 68.1225 185.839 67.9394 184.733 67.7427C183.519 67.5257 182.949 67.0984 182.949 65.8776V65.8572C182.949 64.6296 183.539 64.087 185.059 64.087C185.879 64.087 186.605 64.2566 186.992 64.3922L186.863 65.2332C186.496 65.1179 185.825 65.0162 185.269 65.0162C184.421 65.0162 184.123 65.24 184.123 65.8369V65.8572C184.123 66.4948 184.38 66.6508 185.459 66.8542C186.897 67.1323 187.29 67.5732 187.29 68.7669V68.7872C187.29 70.0894 186.517 70.6727 184.896 70.6727C184.19 70.6727 183.383 70.5167 183.003 70.3743L183.126 69.5333C183.492 69.6486 184.245 69.7367 184.726 69.7367C185.703 69.7367 186.117 69.5197 186.117 68.8076H186.103Z" fill="#004077"/>
<path d="M192.317 64.2091V65.1586H190.628V70.5506H189.461V65.1586H187.766V64.2091H192.317Z" fill="#004077"/>
<path d="M192.994 63.7275L192.852 63.3884L194.439 62.5881L194.71 63.1849L192.994 63.7275ZM194.378 70.5506H193.211V64.2091H194.378V70.5506Z" fill="#004077"/>
<path d="M199.106 64.2091H200.32L198.672 70.5506H196.935L195.287 64.2091H196.488L197.736 69.5333H197.851L199.112 64.2091H199.106Z" fill="#004077"/>
<path d="M204.756 67.7698H202.348V69.5943H205.007V70.5439H201.182V64.2023H204.939V65.1518H202.348V66.8474H204.756V67.7631V67.7698Z" fill="#004077"/>
<path d="M207.251 70.5506H206.084V64.2091H207.251V70.5506Z" fill="#004077"/>
<path d="M211.476 68.8076V68.7872C211.476 68.1225 211.218 67.9394 210.106 67.7427C208.892 67.5257 208.322 67.0984 208.322 65.8776V65.8572C208.322 64.6296 208.912 64.087 210.432 64.087C211.252 64.087 211.978 64.2566 212.365 64.3922L212.236 65.2332C211.869 65.1179 211.198 65.0162 210.642 65.0162C209.794 65.0162 209.496 65.24 209.496 65.8369V65.8572C209.496 66.4948 209.753 66.6508 210.832 66.8542C212.27 67.1323 212.663 67.5732 212.663 68.7669V68.7872C212.663 70.0894 211.89 70.6727 210.269 70.6727C209.563 70.6727 208.756 70.5167 208.377 70.3743L208.499 69.5333C208.865 69.6486 209.618 69.7367 210.099 69.7367C211.076 69.7367 211.49 69.5197 211.49 68.8076H211.476Z" fill="#004077"/>
</svg>
