<?xml version="1.0" encoding="utf-8"?>
<!-- Generator: Adobe Illustrator 25.4.1, SVG Export Plug-In . SVG Version: 6.00 Build 0)  -->
<svg version="1.1" id="Layer_1" xmlns="http://www.w3.org/2000/svg" xmlns:xlink="http://www.w3.org/1999/xlink" x="0px" y="0px"
	 viewBox="0 0 311.8 93.8" style="enable-background:new 0 0 311.8 93.8;" xml:space="preserve">
<style type="text/css">
	.st0{fill:#004F9F;}
</style>
<g>
	<path class="st0" d="M90.1,35.2h12.1v-6.4h0c0-4.3-1.6-8.3-4.2-11.4v0c-0.7-0.9-1.6-1.7-2.5-2.4v0c-0.1-0.1-0.2-0.2-0.3-0.3l0,0
		c-0.1-0.1-0.2-0.2-0.3-0.3l0,0c-0.1-0.1-0.2-0.2-0.3-0.2c-0.1-0.1-0.2-0.2-0.4-0.2c0,0,0,0,0,0c-0.6-0.4-1.2-0.8-1.8-1.1l0,0
		c-0.3-0.1-0.5-0.3-0.8-0.4c0,0,0,0,0,0c-0.1-0.1-0.3-0.1-0.4-0.2h0c-0.1-0.1-0.3-0.1-0.4-0.2l0,0c-0.1,0-0.2-0.1-0.3-0.1
		c0,0-0.1,0-0.1,0c-0.1,0-0.2-0.1-0.3-0.1c-0.1,0-0.1,0-0.2-0.1c-0.1,0-0.1,0-0.2-0.1c-0.1,0-0.2-0.1-0.3-0.1c0,0-0.1,0-0.1,0
		c-0.1,0-0.2-0.1-0.3-0.1l0,0c-0.1,0-0.3-0.1-0.4-0.1h0c-0.1,0-0.1,0-0.2,0c-0.1,0-0.2,0-0.3-0.1c-0.1,0-0.3-0.1-0.4-0.1
		c0,0,0,0,0,0c-0.1,0-0.3-0.1-0.4-0.1c0,0,0,0,0,0c-0.1,0-0.3,0-0.4-0.1c0,0,0,0,0,0c-0.1,0-0.3,0-0.4-0.1h0c-0.1,0-0.3,0-0.4-0.1h0
		c-0.2,0-0.3,0-0.5,0h0c-0.2,0-0.3,0-0.5,0c-0.2,0-0.3,0-0.5,0h0c-0.2,0-0.3,0-0.5,0c-10,0-18.1,8.1-18.1,18.1v0.1h0v12.1l-18.3,0.1
		l0,24.7h0c-0.1,3.2-2.8,5.8-6,5.8c-3.2,0-5.9-2.6-6-5.8h0v-0.2V41.1H25.7v0H5.8v12.2h17.9v12.7h0c0,10,8.1,18.1,18.1,18.1
		c0.2,0,0.3,0,0.5,0c0.2,0,0.3,0,0.5,0l0,0c0.2,0,0.3,0,0.5,0h0c0.2,0,0.3,0,0.4,0c0,0,0,0,0,0c0,0,0.1,0,0.1,0c0.1,0,0.2,0,0.3,0
		c0.2,0,0.3,0,0.4-0.1c0,0,0,0,0,0c0.1,0,0.3,0,0.4-0.1h0c0.1,0,0.2,0,0.2,0c0.1,0,0.1,0,0.2,0c0,0,0,0,0,0c0.1,0,0.3-0.1,0.4-0.1
		l0,0c0.1,0,0.1,0,0.2,0c0.1,0,0.2,0,0.2-0.1c0,0,0.1,0,0.2,0c0.1,0,0.2,0,0.3-0.1c0.1,0,0.1,0,0.2-0.1c0.1,0,0.2,0,0.2-0.1
		c0.1,0,0.2-0.1,0.2-0.1c0.1,0,0.1,0,0.2-0.1c0.1,0,0.2-0.1,0.2-0.1c0.1,0,0.1,0,0.2-0.1c0.1,0,0.2-0.1,0.3-0.1c0.1,0,0.1,0,0.2-0.1
		c0.1,0,0.2-0.1,0.3-0.1c0,0,0.1,0,0.1-0.1c0.1,0,0.2-0.1,0.3-0.1l0.1-0.1c0.1,0,0.2-0.1,0.3-0.1c0,0,0.1,0,0.1-0.1
		c0.1,0,0.2-0.1,0.3-0.1c0,0,0.1,0,0.1-0.1c0.1-0.1,0.2-0.1,0.3-0.2c0,0,0,0,0.1,0c0.1-0.1,0.2-0.1,0.3-0.2c0,0,0,0,0,0
		c0.1-0.1,0.2-0.1,0.3-0.2c0,0,0,0,0.1,0c0.2-0.1,0.5-0.3,0.7-0.4c0,0,0,0,0,0c0.1-0.1,0.2-0.2,0.3-0.2c0,0,0,0,0,0
		c0.1-0.1,0.2-0.2,0.3-0.2c0,0,0,0,0,0c0.1-0.1,0.2-0.1,0.3-0.2l0.1-0.1c0.1-0.1,0.2-0.2,0.3-0.2c0,0,0,0,0,0c0.3-0.3,0.7-0.6,1-0.8
		v0c0.1-0.1,0.2-0.2,0.3-0.3h0c0.3-0.3,0.6-0.6,0.9-0.9l0,0c0.1-0.1,0.2-0.2,0.3-0.3c0,0,0,0,0,0c0.1-0.1,0.2-0.2,0.3-0.3
		c0,0,0,0,0,0c0.1-0.1,0.2-0.2,0.2-0.3c0,0,0,0,0,0c1-1.3,1.7-2.7,2.3-4.1v0c0.8-2,1.4-4.3,1.4-6.6V53.3h6.1v30.1h12V53.3h24.2v30.1
		h12.1V53.3h36.3V41.2h-36.3V29.1c0-3.3,2.7-6,6-6c3.3,0,6,2.7,6,6l0,0v6.1h12.1l0-6.1h0c0-10-8.1-18.1-18.1-18.1
		c-0.2,0-0.3,0-0.5,0h0c-0.2,0-0.3,0-0.5,0h0c-0.2,0-0.3,0-0.5,0h0c-0.1,0-0.3,0-0.4,0h0c-0.1,0-0.3,0-0.4,0.1h0l-0.4,0.1h0
		c-0.1,0-0.2,0-0.3,0c-0.1,0-0.1,0-0.2,0c0,0-0.1,0-0.1,0c-0.1,0-0.2,0-0.3,0.1c0,0-0.1,0-0.1,0c-0.1,0-0.2,0-0.3,0.1c0,0,0,0-0.1,0
		l-0.4,0.1c0,0-0.1,0-0.1,0c-0.1,0-0.2,0.1-0.3,0.1c0,0,0,0-0.1,0c-0.1,0-0.2,0.1-0.3,0.1c-0.1,0-0.2,0.1-0.3,0.1c0,0-0.1,0-0.1,0
		c-0.1,0-0.2,0.1-0.3,0.1c-0.1,0-0.1,0-0.2,0.1c-0.1,0-0.1,0.1-0.2,0.1c-0.1,0-0.1,0.1-0.2,0.1c-0.1,0-0.1,0.1-0.2,0.1
		c-0.1,0-0.1,0.1-0.2,0.1c-0.1,0-0.1,0.1-0.2,0.1c-0.1,0-0.2,0.1-0.2,0.1c0,0-0.1,0-0.1,0.1c-0.1,0-0.2,0.1-0.3,0.1
		c-0.1,0-0.1,0.1-0.2,0.1c-0.1,0-0.1,0.1-0.2,0.1c-0.1,0-0.2,0.1-0.2,0.1c0,0-0.1,0-0.1,0.1c-0.1,0-0.2,0.1-0.3,0.1
		c0,0-0.1,0-0.1,0.1c-0.1,0.1-0.2,0.1-0.3,0.2c0,0,0,0,0,0c-0.1,0.1-0.2,0.1-0.3,0.2c0,0,0,0,0,0c-0.1,0.1-0.2,0.1-0.3,0.2
		c0,0,0,0,0,0c-0.1,0.1-0.2,0.2-0.3,0.2c0,0,0,0,0,0c-0.1,0.1-0.2,0.2-0.3,0.2c0,0,0,0,0,0c-0.1,0.1-0.2,0.2-0.3,0.2c0,0,0,0,0,0
		c-0.1,0.1-0.2,0.2-0.3,0.2c0,0,0,0,0,0c-0.4,0.4-0.9,0.7-1.3,1.1c0,0,0,0,0,0c-0.4,0.4-0.8,0.8-1.2,1.3c0,0,0,0,0,0
		c-0.1,0.1-0.2,0.2-0.3,0.3c0,0,0,0,0,0l-0.3,0.3c0,0,0,0,0,0c-0.1,0.1-0.2,0.2-0.3,0.3c0,0,0,0,0,0c-0.1,0.1-0.2,0.2-0.2,0.3
		c0,0,0,0,0,0c-0.1,0.1-0.2,0.2-0.2,0.3c0,0,0,0,0,0c-0.6,1-1.2,2-1.6,3c0,0,0,0,0,0c0,0.1-0.1,0.2-0.1,0.4c0,0,0,0,0,0
		c-0.1,0.1-0.1,0.3-0.1,0.4v0c0,0.1-0.1,0.3-0.1,0.4c0,0,0,0,0,0c0,0.1-0.1,0.3-0.1,0.4c0,0,0,0,0,0c0,0.1-0.1,0.3-0.1,0.4
		c-0.1,0.3-0.1,0.6-0.2,0.9v0c0,0.1-0.1,0.3-0.1,0.4c0,0,0,0,0,0c0,0.1-0.1,0.3-0.1,0.4c0,0,0,0,0,0c0,0.1,0,0.3-0.1,0.4
		c0,0,0,0,0,0c0,0.1,0,0.3-0.1,0.4c0,0,0,0,0,0c0,0.1,0,0.3,0,0.4c0,0,0,0,0,0.1c0,0.1,0,0.3,0,0.4v0c0,0.1,0,0.3,0,0.4v0
		c0,0.2,0,0.3,0,0.4v0h-0.1v12.4H78.1V29c0-3.3,2.7-6.1,6-6.1c3.3,0,6,2.7,6,6c0,0.1,0,0.2,0,0.3C90.1,29.2,90.1,35.2,90.1,35.2z"/>
	<path class="st0" d="M167.6,9.8h3.2v8.7c0,1.4,0,2.3,0.1,2.7c0.1,0.7,0.5,1.2,1,1.6c0.5,0.4,1.2,0.6,2.1,0.6c0.9,0,1.6-0.2,2.1-0.6
		c0.5-0.4,0.7-0.8,0.8-1.4c0.1-0.5,0.1-1.5,0.1-2.7V9.8h3.2v8.4c0,1.9-0.1,3.3-0.3,4.1c-0.2,0.8-0.5,1.5-1,2c-0.5,0.5-1.1,1-1.9,1.3
		c-0.8,0.3-1.8,0.5-3.1,0.5c-1.5,0-2.7-0.2-3.5-0.5c-0.8-0.4-1.4-0.8-1.9-1.4c-0.5-0.6-0.8-1.2-0.9-1.8c-0.2-0.9-0.3-2.3-0.3-4.1
		L167.6,9.8L167.6,9.8z"/>
	<path class="st0" d="M194.4,25.9h-3.1v-5.9c0-1.3-0.1-2.1-0.2-2.4c-0.1-0.4-0.3-0.7-0.6-0.9c-0.3-0.2-0.6-0.3-1.1-0.3
		c-0.5,0-1,0.1-1.4,0.4c-0.4,0.3-0.7,0.7-0.9,1.2c-0.2,0.5-0.2,1.4-0.2,2.7v5.3h-3.1V14.2h2.9v1.7c1-1.3,2.3-2,3.8-2
		c0.7,0,1.3,0.1,1.9,0.4c0.6,0.2,1,0.6,1.3,0.9c0.3,0.4,0.5,0.8,0.6,1.3c0.1,0.5,0.2,1.2,0.2,2.1L194.4,25.9L194.4,25.9z"/>
	<path class="st0" d="M197.5,9.8h3.1v2.8h-3.1V9.8z M197.5,14.2h3.1v11.6h-3.1V14.2z"/>
	<path class="st0" d="M206.9,25.9l-4.7-11.6h3.2l2.2,5.9l0.6,2c0.2-0.5,0.3-0.8,0.3-1c0.1-0.3,0.2-0.7,0.3-1l2.2-5.9h3.2l-4.6,11.6
		H206.9z"/>
	<path class="st0" d="M222.9,22.1l3.1,0.5c-0.4,1.1-1,2-1.9,2.6c-0.9,0.6-1.9,0.9-3.2,0.9c-2,0-3.5-0.7-4.5-2
		c-0.8-1.1-1.1-2.4-1.1-4c0-1.9,0.5-3.4,1.5-4.5c1-1.1,2.3-1.6,3.8-1.6c1.7,0,3.1,0.6,4.1,1.7c1,1.1,1.5,2.9,1.4,5.3h-7.7
		c0,0.9,0.3,1.6,0.7,2.1c0.5,0.5,1.1,0.8,1.8,0.8c0.5,0,0.9-0.1,1.2-0.4C222.5,23.2,222.8,22.7,222.9,22.1 M223.1,19
		c0-0.9-0.3-1.6-0.7-2c-0.4-0.5-1-0.7-1.6-0.7c-0.7,0-1.2,0.2-1.7,0.7c-0.4,0.5-0.7,1.2-0.6,2L223.1,19L223.1,19z"/>
	<path class="st0" d="M231.6,25.9h-3.1V14.2h2.9v1.7c0.5-0.8,0.9-1.3,1.3-1.5c0.4-0.2,0.8-0.4,1.3-0.4c0.7,0,1.4,0.2,2,0.6l-1,2.7
		c-0.5-0.3-1-0.5-1.4-0.5c-0.4,0-0.8,0.1-1.1,0.4c-0.3,0.2-0.5,0.7-0.7,1.3c-0.2,0.6-0.3,1.9-0.3,3.9L231.6,25.9L231.6,25.9z"/>
	<path class="st0" d="M236.3,22.5l3.1-0.5c0.1,0.6,0.4,1.1,0.8,1.4c0.4,0.3,1,0.5,1.7,0.5c0.8,0,1.4-0.1,1.8-0.4
		c0.3-0.2,0.4-0.5,0.4-0.8c0-0.2-0.1-0.4-0.2-0.6c-0.1-0.1-0.5-0.3-1-0.4c-2.5-0.6-4.1-1-4.7-1.5c-0.9-0.6-1.4-1.5-1.4-2.6
		c0-1,0.4-1.9,1.2-2.5c0.8-0.7,2-1,3.7-1c1.6,0,2.8,0.3,3.6,0.8c0.8,0.5,1.3,1.3,1.6,2.3l-2.9,0.5c-0.1-0.5-0.4-0.8-0.7-1
		c-0.3-0.2-0.8-0.4-1.5-0.4c-0.8,0-1.4,0.1-1.7,0.3c-0.2,0.2-0.3,0.4-0.3,0.6c0,0.2,0.1,0.4,0.3,0.6c0.3,0.2,1.2,0.5,2.9,0.9
		c1.6,0.4,2.8,0.8,3.4,1.4c0.6,0.5,1,1.3,1,2.3c0,1.1-0.4,2-1.3,2.8c-0.9,0.8-2.2,1.1-4,1.1c-1.6,0-2.8-0.3-3.8-1
		C237.2,24.5,236.6,23.6,236.3,22.5"/>
	<path class="st0" d="M249.9,9.8h3.1v2.8h-3.1V9.8z M249.9,14.2h3.1v11.6h-3.1V14.2z"/>
	<path class="st0" d="M266.8,25.9h-2.9v-1.7c-0.5,0.7-1,1.2-1.7,1.5c-0.6,0.3-1.3,0.5-2,0.5c-1.3,0-2.5-0.5-3.4-1.6
		c-1-1.1-1.4-2.6-1.4-4.5c0-2,0.5-3.5,1.4-4.5c0.9-1,2.1-1.5,3.5-1.5c1.3,0,2.4,0.5,3.4,1.6V9.8h3.1V25.9z M258.6,19.8
		c0,1.2,0.2,2.1,0.5,2.7c0.5,0.8,1.2,1.2,2.1,1.2c0.7,0,1.3-0.3,1.8-0.9c0.5-0.6,0.7-1.5,0.7-2.7c0-1.3-0.2-2.3-0.7-2.9
		c-0.5-0.6-1.1-0.9-1.9-0.9c-0.7,0-1.3,0.3-1.8,0.9C258.8,17.8,258.6,18.6,258.6,19.8"/>
	<path class="st0" d="M272.1,17.8l-2.8-0.5c0.3-1.1,0.9-2,1.6-2.5c0.8-0.5,1.9-0.8,3.4-0.8c1.4,0,2.4,0.2,3.1,0.5
		c0.7,0.3,1.1,0.7,1.4,1.2c0.3,0.5,0.4,1.4,0.4,2.8l0,3.6c0,1,0.1,1.8,0.2,2.3c0.1,0.5,0.3,1,0.6,1.6h-3c-0.1-0.2-0.2-0.5-0.3-0.9
		c-0.1-0.2-0.1-0.3-0.1-0.4c-0.5,0.5-1.1,0.9-1.7,1.2c-0.6,0.3-1.2,0.4-1.9,0.4c-1.2,0-2.1-0.3-2.8-1c-0.7-0.6-1-1.5-1-2.5
		c0-0.7,0.1-1.2,0.5-1.8c0.3-0.5,0.8-0.9,1.3-1.2c0.6-0.3,1.4-0.5,2.5-0.7c1.4-0.3,2.4-0.5,3-0.8V18c0-0.6-0.1-1-0.4-1.3
		c-0.3-0.3-0.8-0.4-1.7-0.4c-0.5,0-1,0.1-1.3,0.3C272.6,16.9,272.3,17.2,272.1,17.8 M276.3,20.3c-0.4,0.1-1,0.3-1.9,0.5
		c-0.9,0.2-1.4,0.4-1.7,0.5c-0.4,0.3-0.6,0.6-0.6,1.1c0,0.4,0.2,0.8,0.5,1.1c0.3,0.3,0.7,0.5,1.2,0.5c0.6,0,1.1-0.2,1.6-0.5
		c0.4-0.3,0.6-0.6,0.7-1c0.1-0.3,0.1-0.8,0.1-1.5L276.3,20.3L276.3,20.3z"/>
	<path class="st0" d="M293,25.9h-2.9v-1.7c-0.5,0.7-1,1.2-1.7,1.5c-0.6,0.3-1.3,0.5-2,0.5c-1.3,0-2.5-0.5-3.4-1.6
		c-1-1.1-1.4-2.6-1.4-4.5c0-2,0.5-3.5,1.4-4.5c0.9-1,2.1-1.5,3.5-1.5c1.3,0,2.4,0.5,3.4,1.6V9.8h3.1L293,25.9L293,25.9z M284.8,19.8
		c0,1.2,0.2,2.1,0.5,2.7c0.5,0.8,1.2,1.2,2.1,1.2c0.7,0,1.3-0.3,1.8-0.9c0.5-0.6,0.7-1.5,0.7-2.7c0-1.3-0.2-2.3-0.7-2.9
		c-0.5-0.6-1.1-0.9-1.9-0.9c-0.7,0-1.3,0.3-1.8,0.9C285,17.8,284.8,18.6,284.8,19.8"/>
	<path class="st0" d="M302.8,22.1l3.1,0.5c-0.4,1.1-1,2-1.9,2.6c-0.9,0.6-1.9,0.9-3.2,0.9c-2,0-3.5-0.7-4.5-2
		c-0.8-1.1-1.1-2.4-1.1-4c0-1.9,0.5-3.4,1.5-4.5c1-1.1,2.3-1.6,3.8-1.6c1.7,0,3.1,0.6,4.1,1.7c1,1.1,1.5,2.9,1.4,5.3h-7.7
		c0,0.9,0.3,1.6,0.7,2.1c0.5,0.5,1.1,0.8,1.8,0.8c0.5,0,0.9-0.1,1.2-0.4C302.4,23.2,302.6,22.7,302.8,22.1 M302.9,19
		c0-0.9-0.3-1.6-0.7-2c-0.4-0.5-1-0.7-1.6-0.7c-0.7,0-1.2,0.2-1.7,0.7c-0.4,0.5-0.7,1.2-0.6,2L302.9,19L302.9,19z"/>
	<polygon class="st0" points="167.6,53.9 167.6,37.8 178.6,37.8 178.6,40.6 170.9,40.6 170.9,44.4 177.6,44.4 177.6,47.1 
		170.9,47.1 170.9,53.9 	"/>
	<path class="st0" d="M188,50.2l3.1,0.5c-0.4,1.1-1,2-1.9,2.6c-0.9,0.6-1.9,0.9-3.2,0.9c-2,0-3.5-0.7-4.5-2c-0.8-1.1-1.1-2.4-1.1-4
		c0-1.9,0.5-3.4,1.5-4.5c1-1.1,2.3-1.6,3.8-1.6c1.7,0,3.1,0.6,4.1,1.7c1,1.1,1.5,2.9,1.4,5.3h-7.7c0,0.9,0.3,1.6,0.7,2.1
		c0.5,0.5,1.1,0.8,1.8,0.8c0.5,0,0.9-0.1,1.2-0.4C187.6,51.2,187.9,50.8,188,50.2 M188.2,47.1c0-0.9-0.3-1.6-0.7-2
		c-0.4-0.5-1-0.7-1.6-0.7c-0.7,0-1.2,0.2-1.7,0.7c-0.4,0.5-0.7,1.2-0.7,2H188.2z"/>
	<path class="st0" d="M204.4,53.9h-2.9v-1.7c-0.5,0.7-1,1.2-1.7,1.5c-0.6,0.3-1.3,0.5-2,0.5c-1.3,0-2.5-0.5-3.4-1.6
		c-1-1.1-1.4-2.6-1.4-4.5c0-2,0.5-3.5,1.4-4.5c0.9-1,2.1-1.5,3.5-1.5c1.3,0,2.4,0.5,3.4,1.6v-5.8h3.1L204.4,53.9L204.4,53.9z
		 M196.2,47.8c0,1.2,0.2,2.1,0.5,2.7c0.5,0.8,1.2,1.2,2.1,1.2c0.7,0,1.3-0.3,1.8-0.9c0.5-0.6,0.7-1.5,0.7-2.7c0-1.3-0.2-2.3-0.7-2.9
		c-0.5-0.6-1.1-0.9-1.9-0.9c-0.7,0-1.3,0.3-1.8,0.9C196.5,45.8,196.2,46.7,196.2,47.8"/>
	<path class="st0" d="M214.2,50.2l3.1,0.5c-0.4,1.1-1,2-1.9,2.6c-0.9,0.6-1.9,0.9-3.2,0.9c-2,0-3.5-0.7-4.5-2
		c-0.8-1.1-1.1-2.4-1.1-4c0-1.9,0.5-3.4,1.5-4.5c1-1.1,2.3-1.6,3.8-1.6c1.7,0,3.1,0.6,4.1,1.7c1,1.1,1.5,2.9,1.4,5.3h-7.7
		c0,0.9,0.3,1.6,0.8,2.1c0.5,0.5,1.1,0.8,1.8,0.8c0.5,0,0.9-0.1,1.2-0.4C213.8,51.2,214,50.8,214.2,50.2 M214.4,47.1
		c0-0.9-0.3-1.6-0.7-2c-0.4-0.5-1-0.7-1.6-0.7c-0.7,0-1.2,0.2-1.7,0.7c-0.4,0.5-0.7,1.2-0.6,2H214.4z"/>
	<path class="st0" d="M222.9,53.9h-3.1V42.3h2.9v1.7c0.5-0.8,0.9-1.3,1.3-1.5c0.4-0.2,0.8-0.4,1.3-0.4c0.7,0,1.4,0.2,2,0.6l-0.9,2.7
		c-0.5-0.3-1-0.5-1.4-0.5c-0.4,0-0.8,0.1-1.1,0.4c-0.3,0.2-0.5,0.7-0.7,1.3c-0.2,0.6-0.3,1.9-0.3,3.9L222.9,53.9L222.9,53.9z"/>
	<path class="st0" d="M231,45.8l-2.8-0.5c0.3-1.1,0.9-2,1.6-2.5c0.8-0.5,1.9-0.8,3.4-0.8c1.4,0,2.4,0.2,3.1,0.5
		c0.7,0.3,1.1,0.7,1.4,1.2c0.3,0.5,0.4,1.4,0.4,2.8l0,3.6c0,1,0.1,1.8,0.2,2.3c0.1,0.5,0.3,1,0.5,1.6h-3c-0.1-0.2-0.2-0.5-0.3-0.9
		c-0.1-0.2-0.1-0.3-0.1-0.4c-0.5,0.5-1.1,0.9-1.7,1.2c-0.6,0.3-1.2,0.4-1.9,0.4c-1.2,0-2.1-0.3-2.8-1c-0.7-0.6-1-1.5-1-2.5
		c0-0.7,0.2-1.2,0.5-1.8c0.3-0.5,0.8-0.9,1.3-1.2c0.6-0.3,1.4-0.5,2.5-0.7c1.4-0.3,2.4-0.5,3-0.8V46c0-0.6-0.1-1-0.4-1.3
		c-0.3-0.3-0.8-0.4-1.7-0.4c-0.5,0-1,0.1-1.3,0.3C231.4,44.9,231.2,45.3,231,45.8 M235.1,48.3c-0.4,0.1-1,0.3-1.9,0.5
		c-0.9,0.2-1.4,0.4-1.7,0.5c-0.4,0.3-0.6,0.6-0.6,1.1c0,0.4,0.2,0.8,0.5,1.1c0.3,0.3,0.7,0.5,1.2,0.5c0.6,0,1.1-0.2,1.6-0.5
		c0.4-0.3,0.6-0.6,0.7-1c0.1-0.3,0.1-0.8,0.1-1.5L235.1,48.3L235.1,48.3z"/>
	<rect x="241.2" y="37.8" class="st0" width="3.1" height="16.1"/>
	<polygon class="st0" points="167.6,82 167.6,65.9 178.6,65.9 178.6,68.6 170.9,68.6 170.9,72.4 177.6,72.4 177.6,75.1 170.9,75.1 
		170.9,82 	"/>
	<rect x="181.3" y="65.9" class="st0" width="3.1" height="16.1"/>
	<path class="st0" d="M195.2,82v-1.7c-0.4,0.6-1,1.1-1.7,1.5c-0.7,0.4-1.4,0.5-2.2,0.5c-0.8,0-1.5-0.2-2.1-0.5
		c-0.6-0.3-1.1-0.8-1.3-1.4c-0.3-0.6-0.4-1.5-0.4-2.6v-7.4h3.1v5.4c0,1.6,0.1,2.6,0.2,3c0.1,0.4,0.3,0.7,0.6,0.9
		c0.3,0.2,0.7,0.3,1.1,0.3c0.5,0,1-0.1,1.4-0.4c0.4-0.3,0.7-0.6,0.9-1.1c0.2-0.4,0.2-1.5,0.2-3.1v-4.9h3.1V82H195.2z"/>
	<path class="st0" d="M201,70.3h2.8v1.6c1-1.2,2.2-1.9,3.6-1.9c0.7,0,1.4,0.2,1.9,0.5c0.5,0.3,1,0.8,1.3,1.4
		c0.5-0.6,1.1-1.1,1.7-1.4c0.6-0.3,1.2-0.5,1.9-0.5c0.9,0,1.6,0.2,2.2,0.5c0.6,0.3,1,0.9,1.3,1.5c0.2,0.5,0.3,1.3,0.3,2.4V82H215
		v-6.7c0-1.1-0.1-1.9-0.3-2.2c-0.3-0.4-0.7-0.7-1.3-0.7c-0.4,0-0.8,0.1-1.2,0.4c-0.4,0.3-0.7,0.7-0.8,1.2c-0.2,0.5-0.3,1.3-0.3,2.4
		V82H208v-6.4c0-1.1-0.1-1.9-0.2-2.2c-0.1-0.3-0.3-0.6-0.5-0.7c-0.2-0.2-0.5-0.2-0.9-0.2c-0.5,0-0.9,0.1-1.3,0.4
		c-0.4,0.3-0.6,0.6-0.8,1.1c-0.2,0.5-0.2,1.3-0.2,2.4V82H201L201,70.3L201,70.3z"/>
	<path class="st0" d="M221.2,65.9h3.1v2.8h-3.1V65.9z M221.2,70.3h3.1V82h-3.1V70.3z"/>
	<path class="st0" d="M238,82h-3.1V76c0-1.3-0.1-2.1-0.2-2.4c-0.1-0.4-0.3-0.7-0.6-0.9c-0.3-0.2-0.6-0.3-1.1-0.3
		c-0.5,0-1,0.1-1.4,0.4c-0.4,0.3-0.7,0.7-0.9,1.2c-0.2,0.5-0.2,1.4-0.2,2.7V82h-3.1V70.3h2.9V72c1-1.3,2.3-2,3.8-2
		c0.7,0,1.3,0.1,1.9,0.4c0.6,0.2,1,0.6,1.3,0.9c0.3,0.4,0.5,0.8,0.6,1.3c0.1,0.5,0.2,1.2,0.2,2.1V82z"/>
	<path class="st0" d="M247.9,78.2l3.1,0.5c-0.4,1.1-1,2-1.9,2.6c-0.9,0.6-1.9,0.9-3.2,0.9c-2,0-3.5-0.7-4.5-2
		c-0.8-1.1-1.1-2.4-1.1-4c0-1.9,0.5-3.4,1.5-4.5c1-1.1,2.3-1.6,3.8-1.6c1.7,0,3.1,0.6,4.1,1.7c1,1.1,1.5,2.9,1.4,5.3h-7.7
		c0,0.9,0.3,1.6,0.7,2.1c0.5,0.5,1.1,0.8,1.8,0.8c0.5,0,0.9-0.1,1.2-0.4C247.4,79.3,247.7,78.8,247.9,78.2 M248,75.1
		c0-0.9-0.3-1.6-0.7-2c-0.4-0.5-1-0.7-1.6-0.7c-0.7,0-1.2,0.2-1.7,0.7c-0.4,0.5-0.7,1.2-0.7,2H248z"/>
	<path class="st0" d="M264.2,82h-3.1V76c0-1.3-0.1-2.1-0.2-2.4c-0.1-0.4-0.3-0.7-0.6-0.9c-0.3-0.2-0.6-0.3-1.1-0.3
		c-0.5,0-1,0.1-1.4,0.4c-0.4,0.3-0.7,0.7-0.9,1.2c-0.1,0.5-0.2,1.4-0.2,2.7V82h-3.1V70.3h2.9V72c1-1.3,2.3-2,3.8-2
		c0.7,0,1.3,0.1,1.9,0.4c0.6,0.2,1,0.6,1.3,0.9c0.3,0.4,0.5,0.8,0.6,1.3c0.1,0.5,0.2,1.2,0.2,2.1L264.2,82L264.2,82z"/>
	<path class="st0" d="M266.2,78.6l3.1-0.5c0.1,0.6,0.4,1.1,0.8,1.4c0.4,0.3,1,0.5,1.7,0.5c0.8,0,1.4-0.1,1.8-0.4
		c0.3-0.2,0.4-0.5,0.4-0.8c0-0.2-0.1-0.4-0.2-0.6c-0.2-0.2-0.5-0.3-1-0.4c-2.5-0.6-4.1-1.1-4.7-1.5c-0.9-0.6-1.4-1.5-1.4-2.6
		c0-1,0.4-1.9,1.2-2.5c0.8-0.7,2-1,3.7-1c1.6,0,2.8,0.3,3.6,0.8c0.8,0.5,1.3,1.3,1.6,2.3l-2.9,0.5c-0.1-0.5-0.4-0.8-0.7-1
		c-0.3-0.2-0.8-0.4-1.5-0.4c-0.8,0-1.4,0.1-1.7,0.3c-0.2,0.2-0.3,0.4-0.3,0.6c0,0.2,0.1,0.4,0.3,0.6c0.3,0.2,1.2,0.5,2.9,0.9
		c1.6,0.4,2.8,0.8,3.4,1.4c0.6,0.5,1,1.3,1,2.3c0,1.1-0.4,2-1.3,2.8c-0.9,0.8-2.2,1.1-4,1.1c-1.6,0-2.8-0.3-3.8-1
		C267.1,80.6,266.5,79.7,266.2,78.6"/>
	<path class="st0" d="M286.5,78.2l3.1,0.5c-0.4,1.1-1,2-1.9,2.6s-1.9,0.9-3.2,0.9c-2,0-3.5-0.7-4.5-2c-0.8-1.1-1.1-2.4-1.1-4
		c0-1.9,0.5-3.4,1.5-4.5c1-1.1,2.3-1.6,3.8-1.6c1.7,0,3.1,0.6,4.1,1.7c1,1.1,1.5,2.9,1.4,5.3H282c0,0.9,0.3,1.6,0.7,2.1
		c0.5,0.5,1.1,0.8,1.8,0.8c0.5,0,0.9-0.1,1.2-0.4C286.1,79.3,286.4,78.8,286.5,78.2 M286.7,75.1c0-0.9-0.3-1.6-0.7-2
		c-0.4-0.5-1-0.7-1.6-0.7c-0.7,0-1.2,0.2-1.7,0.7c-0.4,0.5-0.7,1.2-0.7,2H286.7z"/>
</g>
</svg>
